<?xml version="1.0" ?><svg fill="#ffc836" viewBox="0 0 512 512" xmlns="http://www.w3.org/2000/svg"><g id="Wine_barrel"><path d="M330.0259,397.2251c-2.1,23.8877-4.9,47.0752-8.2246,68.7749h56.9731a13.1284,13.1284,0,0,0,12.064-7.79A441.7461,441.7461,0,0,0,412.5376,396H330.1133C330.1133,396.3506,330.0259,396.7886,330.0259,397.2251Z"/><path d="M216.5376,463.9878A17.0879,17.0879,0,0,1,216.7124,466H295.375a16.9873,16.9873,0,0,1,.1753-2.0122c3.2383-21.2632,6.0371-44.1,8.312-67.9878H208.2256C210.5005,419.6245,213.3013,442.5508,216.5376,463.9878Z"/><path d="M181.9756,396H99.5513a441.7335,441.7335,0,0,0,21.6992,62.21,13.1284,13.1284,0,0,0,12.064,7.79h56.9731c-3.3242-21.7-6.1245-44.8872-8.2246-68.7749C182.063,396.7886,181.9756,396.3506,181.9756,396Z"/><path d="M424,168.5H333.874c1.5767,28.6128,2.3628,58.0127,2.3628,87.5,0,29.4-.7861,58.8877-2.3628,87.5h90.0381A537.6365,537.6365,0,0,0,431,256,547.678,547.678,0,0,0,424,168.5Z"/><path d="M307.7139,168.5H204.376v.7007C202.8892,197.3755,202.1011,226.6,202.1011,256s.7881,58.5371,2.2749,86.7119V343.5H307.7139v-.7881c1.4868-28.2622,2.2729-57.4873,2.2729-86.7119,0-29.3135-.7861-58.4492-2.2729-86.7993Z"/><path d="M175.8511,256c0-29.6626.7881-59.0625,2.3623-87.5H88.0005A547.678,547.678,0,0,0,81,256a537.6365,537.6365,0,0,0,7.0879,87.5h90.1255C176.6392,315.0625,175.8511,285.5752,175.8511,256Z"/><path d="M330.1133,116h82.4243a441.7394,441.7394,0,0,0-21.6992-62.2095A13.128,13.128,0,0,0,378.7744,46H321.8013c3.3242,21.7,6.1245,44.8877,8.2246,68.7749C330.0259,115.2119,330.1133,115.65,330.1133,116Z"/><path d="M295.55,47.9248A14.2409,14.2409,0,0,1,295.375,46H216.7124a14.3212,14.3212,0,0,1-.1748,1.9248C213.3013,69.45,210.5005,92.3755,208.2256,116h95.6367C301.5874,92.2,298.7886,69.2744,295.55,47.9248Z"/><path d="M121.2505,53.7905A441.7267,441.7267,0,0,0,99.5513,116h82.4243c0-.35.0874-.7881.0874-1.2251,2.1-23.8872,4.9-47.0747,8.2246-68.7749H133.3145A13.128,13.128,0,0,0,121.2505,53.7905Z"/></g></svg>