<svg xmlns="http://www.w3.org/2000/svg" xmlnsXlink="http://www.w3.org/1999/xlink" version="1.1" enable-background="new 0 0 748.065 1730.721" xmlSpace="preserve" width="1004.714241728494" height="781.2856874271333"><rect id="backgroundrect" width="100%" height="100%" x="0" y="0" fill="none" stroke="none" class="" style=""/>

<g class="currentLayer" style=""><title>Layer 1</title><g class="selected" filter=""><path fill="#000000" fill-opacity="1" stroke="#ffc836" stroke-opacity="1" stroke-width="16" stroke-dasharray="none" stroke-linejoin="miter" stroke-linecap="butt" stroke-dashoffset="" fill-rule="nonzero" opacity="1" marker-start="" marker-mid="" marker-end="" d="M256.85715571874476,402.7856905572595 C256.85715571874476,253.49602078465753 372.5714464469385,132.5713882688494 515.4285954940917,132.5713882688494 C658.2857445412449,132.5713882688494 774.0000352694389,253.49602078465753 774.0000352694389,402.7856905572595 C774.0000352694389,552.0753603298617 658.2857445412449,672.9999928456698 515.4285954940917,672.9999928456698 C372.5714464469385,672.9999928456698 256.85715571874476,552.0753603298617 256.85715571874476,402.7856905572595 z" id="svg_3" class="" filter=""/><g id="svg_1" class="" fill-opacity="1" fill="#000000" stroke="#ffc836" stroke-opacity="1" stroke-width="10" filter="">
	<path d="M588.0907870441254,652.5443360763186 c-0.16779025821485058,-0.6493930611592673 0.3118443335602831,-0.7553134827852408 4.7341407488521465,-8.31885120919019 c3.569840054653986,-6.105555732297381 4.507419277995985,-9.885590779074432 6.370709633245282,-15.200841460727986 c1.9995687844823335,-5.703940800298886 47.98965082757592,-38.370303212710276 27.47708713854445,-91.42634678812222 c-10.348566486533908,-26.76697321506457 -30.189559898173766,-29.372111204103476 -43.796531350333616,-49.54522293360092 c-8.797938953909362,-13.04302810944879 -3.4892188818044123,-11.398109180745376 -2.8025065567202208,-24.584571194479338 c0.06834383688263462,-1.3117109356717003 0.7873864800131004,-2.5288500663201994 0.7853402573519447,-3.838984805241507 c1.8444651067666524,-1.6408208171524108 0.3724125243305227,-4.005746421432406 1.204406658356839,-4.874861309595556 c1.9349081483897792,-2.020368994645493 2.5581875709781117,-15.713735883303777 2.510305960707044,-16.02897523338109 c-0.047881610271067035,-0.31523935007731424 -5.678677129242083,-36.32692174550913 -4.30770794626709,-38.557240147306125 c0.19234493014873102,0.48830575326975895 0.14855576519997712,0.864386297911992 -0.06875308141486552,1.2322706194522146 c2.0028427407401797,-0.2209827844041978 0.051155566528918076,1.7697537113340307 1.2363277318708814,2.6458038651988813 c0.0372412524330524,-1.1121644270727618 1.2502420459667476,-1.8362692142003434 0.9920087461287693,-2.9065068077128187 c-0.07202703767271625,-0.2991621432233707 0.11827166981485866,-0.3149241107272372 0.3429469180098671,-0.4624561265634208 c2.3703443306839245,-1.5563366713316913 0.4268420471172912,-2.4683241111053547 2.5389530779632374,-4.756646553316564 c0.7620133190147587,0.6358377691059415 -0.021280715676030015,1.2410973212543792 0.15428518865121596,1.9242209928719127 c0.6969434383899713,-0.4596189724127238 1.2060436364857627,-0.8278185333030322 1.2199579505816331,-1.473743961611437 c0.044198409480985267,-2.0273042603471945 0.8651429411370553,-3.9622433911217363 1.209726837275848,-5.95424084426027 c0.694897215728819,-4.016779798685111 1.9054425420691241,-2.847241809898284 2.0805992018641355,-5.060222047441015 c1.3558271352824316,0.6632635925626665 -0.28851739522309744,1.3205376374738607 0.7820663010940976,1.5002240670179283 c0.8291294223007037,0.1393357927341727 0.5406120270776043,-0.5860299517937261 1.5502182880923177,-4.386555556325797 c0.5455229614643805,0.08574510322103025 0.2676459240792992,0.5062743962241666 0.6838476133585735,0.6569588055611221 c-0.018416003950410483,-0.4334541063563087 0.10967753463800027,-0.8193070708509396 0.5483876731899987,-1.033669828903508 c0.7910696808031816,-0.38648344319478584 0.028647117256194187,-0.6525454546600381 -0.13791540736196245,-0.9662086079869674 c0.6478340945222172,-0.18189310499460873 1.25801769207914,-0.24840860786092242 1.9664199773715936,-0.21247132195210924 c0.047881610271067035,-1.411957048996281 0.7186333985982346,-2.7681167330288794 0.4935489058710001,-4.196781467579258 c1.2719320061750121,-0.6701988582643664 0.049927832932223845,-1.8826093986617087 0.9604969171469615,-2.640444796247566 c0.09617246507436558,-0.08007079491963778 0.0765287275272611,-0.26038770316386095 0.06998081501155974,-0.3931034695464121 c-0.10353886665452998,-1.9825402726362138 0.8287201777684694,-3.9130660525096745 0.5000968183867016,-5.906639702398598 c0.9183447303271327,-0.833177602254338 0.4931396613387699,-1.7085972774190323 0.3629999000892004,-2.6625115507529773 c-0.14528180894212717,-1.0648785245611616 0.27746779285285056,-2.1827172599353104 0.16042385663468614,-3.287631181956288 c-0.027010139127268736,-0.2562895916128566 0.20584999971236576,-0.4066587615997343 0.27746779285285056,-0.6112490997999126 c0.8008915495767368,-2.280126219109198 0.7837032792230213,-5.033741942034519 0.40187813065117944,-7.369980765457482 c-0.06588836968924644,-0.4025606500487317 -0.14446331987766442,-0.8265575759027168 0.05647574544792575,-1.201377163144638 s0.8013007941089678,-0.655697848160814 1.2645656045948441,-0.46340184461365236 c0.4080167986346492,0.1695987703415943 0.496413617596618,0.5961176109962009 0.42193111273051476,0.9488704437327193 c-0.07407326033387299,0.3524375933864387 -0.26150725609582776,0.697939921071171 -0.21771809114707555,1.053529907958378 c0.04378916494875424,0.3555899868872091 0.4583538760991053,0.724420026477665 0.9052489052957332,0.628587264054162 c0.9154800186015098,-0.2827696970193506 -0.5921768381387517,-6.796245148316775 -0.7489174939833564,-7.505218446640645 c-0.9056581498279632,-4.099687747755444 -1.7306951268063404,-8.182983049306868 -2.407176338584745,-12.307259466368341 c-0.7059468180990675,-4.304278085955618 -1.0619895611403298,-8.586174178055746 -1.856333198201364,-12.84190540409946 c-0.4608093432924917,-2.4525621436014826 -0.9617246507436537,-4.900710936301894 -1.503155166885716,-7.34318542070091 c-1.6259285265551169,-7.337195873049438 -3.7650496965283358,-14.565003691622053 -5.458094326369393,-21.880763288866234 c-2.108837074588098,-9.111047695934475 -4.4607654013216145,-18.120588321144048 -6.982939453463367,-27.16228336006152 c-2.591745622621081,-9.29104936482862 -5.124150788068616,-18.59218638885972 -7.6721072457409445,-27.89048625874011 c-2.35970397284591,-8.611078086711858 -4.703856653467029,-17.22562380627457 -7.158096113258378,-25.821255164832632 c-0.6846661024230324,-2.3973952573379593 -1.3341371750741677,-4.80834580672924 -2.1497615278112323,-7.182098112811401 c-11.365129904596563,-33.073336413361204 -26.473619545513202,-38.712653146894226 -34.883185438335026,-46.020846999736555 c-4.113726037989435,-3.5751294692267983 -16.266651667131327,-7.118419764095783 -19.405147984813482,-9.617637331508718 c-1.2502420459667476,-0.9955258675441522 -2.2897231578343513,-0.3905815547457908 -4.983370668981036,-0.9189227054753706 c-1.3586918470080527,-0.26637725081533 -2.6146633164260358,0.34077373743357625 -3.9533021813547493,0.3502309179358947 c-0.3351712718974695,0.002206675450541206 -0.6981711719866689,0.19324172159739303 -1.0194281297882735,0.05958023716461265 c-2.8814907514408707,-1.1991704876941016 -12.805670658050882,0.041926833560282734 -14.878084969270386,0.40760447964996527 c-3.6922041697911547,0.6519149759598818 -7.184287763321188,3.0767360567545667 -8.944039251915948,3.837093369141042 c-1.9574165976625058,0.8454719369073489 -0.37732345871730033,1.5680005272845507 -3.69916132683909,2.444050681149402 c-5.742110031737942,1.5144098377714088 -3.8493540701679896,2.2719299960071906 -7.129858240534418,2.268777602506417 c-9.130654758613444,-0.009141941152242133 -25.92154867153312,1.5270194117744997 -29.715245485317634,7.676708653082705 c-0.529562424707355,0.8580815109104488 -1.7221009916294858,1.528910847874963 -2.130936279328592,2.53452437462159 c-1.1065972151535481,2.7198851124670513 -2.1137480089748744,5.453325516987421 -1.7769397589484837,8.355418973799159 c0.12441033779832808,1.070552832862553 1.327180018026233,2.0708072906578643 -0.01596053675702244,3.6192629782376207 c-0.5025522855800875,0.5794099254421013 -0.965817096065964,1.53994422512767 0.028237872723962647,2.3419131317243513 c0.496413617596618,0.40035397459819083 0.198483598132202,0.9378370664800116 -0.0008184890644626907,1.4015541504437297 c-2.591336378088848,6.030844006329059 -3.6979335932423947,5.555463066412472 -4.849956951473619,24.2419060209453 c-0.08675984083304566,1.4062827406948901 1.6500739539567681,2.479672727708137 3.1241727590540562,4.7389931497122335 c1.5187064591105055,2.3274121216208026 -1.329226240687396,1.6713990341099094 -1.7118698783237014,2.438061133497931 c0.4579446315668738,0.3171307861777774 1.0411180899965327,0.30357549412445295 1.6038293218146253,0.39121203344594546 c8.862599590001913,1.381378832038783 -26.578386145764412,24.439245854093702 -3.251447808578003,26.652541330986505 c2.1194774324261143,0.20112270534932652 3.0013993993846526,0.7430191481322305 3.5342357803498596,2.3059758458155413 c0.38468986029746244,1.1288721126268557 0.6781181899073321,2.236307949448452 0.3535872758478806,3.4392613093434745 c-0.3912377728131663,1.450416249705715 0.7084022852924519,3.203462275485649 2.471836974677298,3.843398156142591 c1.1376997996031273,0.41296354860128265 1.5719082483005806,0.8243509004521734 1.3607380696692122,1.8170396138456275 c-0.5929953272032144,2.7892377694840578 3.446248205920123,1.8123110235944704 6.1439881623891175,6.028637330878516 c0.7231350884527844,1.1298178306770883 0.09780944320329102,1.8826093986617087 0.7505544721122807,4.918994818606378 c1.3595103360725127,6.322125165800497 10.039586864699245,6.098620466595681 17.931867668780647,7.21992683482068 c7.252222355671588,1.0302021960526582 7.843580704745875,0.5273954326793449 9.408531795998524,1.5203993854228772 c0.4915026832098437,0.3117717172264643 2.334740056379798,-0.021436275805257442 1.74542792996667,1.6461798861037236 c6.190642039063493,-2.449724989450793 3.0484625205912566,4.189846201877557 2.564326238961581,7.483782170835389 c-2.3736182869417766,16.145298553559616 -10.26344362382979,30.089595964879436 -11.327070163099048,30.854997106867152 c-0.3973764407966339,0.2859220905201244 -1.0001936367733963,0.8394823892558925 -0.42274960179497845,1.4403285905032408 c0.7722444323205438,0.8038603426971481 -1.6267470156195785,0.2376904699582947 -0.8585950286213546,1.257805006808481 c0.5999524842511498,0.7962945982952987 -3.2874613274143605,3.9414375940166337 -3.7007983049680138,4.1267983318620916 c-1.7622069557881548,0.791250768694054 -3.2354872718209795,1.886392270862636 -4.933852080581042,2.7451042604732363 c-0.8761925435073016,0.442911286858626 -0.8483639153155665,0.47538093991659097 -1.0149264399337248,1.5323784807258132 c0.32698638125284313,-0.06651550286631362 0.640876937474285,-0.13050909093200866 1.0636265392692517,-0.21625419415303837 c0.003683200790082101,1.5131488803710988 -4.164063115453891,0.8590272289606772 -1.5289375724162917,2.7217765485675156 c1.3824280298774705,-0.9983630216948468 3.161004766954876,-1.4702763287605844 4.939172259500051,-2.052838647703456 c-21.950239730760185,21.85838129501074 -21.90645056581143,18.324232941294 -37.99016992703535,31.262286347167034 c-8.89861310883827,7.158139922205528 -10.231113305783513,12.748279317126501 -10.911686962884236,13.73813087636926 c-3.359488365087076,4.885579447498184 -8.45294581323834,20.950807206138162 20.326357426866224,35.69392113055389 c0.5606650091569412,0.28718304792043337 1.169211628584947,0.6128252965502978 1.56863429204273,1.002145893895778 c-15.522235863002523,12.230971543649632 -19.80702611546465,14.547665527367801 -26.47484727910989,20.33514475543718 c-27.306841413136212,23.701901014262862 -22.74294638969229,43.4276881060006 -25.717335649949682,47.106846560752906 c-1.119693040184957,1.384846464889634 -2.2688516866905535,4.565611507169711 -1.7589329995303031,5.791577339620378 c1.1356535769419713,2.731233729069835 3.616493931328357,22.140520513329935 14.330106540612627,35.12050075276327 c13.72074143212016,16.622886168926748 31.168063574738905,24.140083710870325 30.834529280970358,23.82484436079302 c2.6817794197119746,2.5361005713719758 10.639130104418163,3.748826351119395 13.836148390209397,7.459193501529358 c1.5944166975733027,1.8504549849538214 2.639217988359916,1.037767940454519 3.2277116257085843,3.0313415903434353 c0.34417465160655947,1.1667008346361358 8.480365196897841,14.140376287067912 14.429552961944845,18.46136205857763 c2.599930513265706,1.8882837069631 1.7139161009848554,3.5395074226680605 2.627759141457439,11.545325957231476 c2.872896616264013,25.158937290320196 -2.425183098002925,16.24239227338343 5.578412218845403,62.842333959212006 c0.4747236573883594,2.7640186214778746 1.5841855842675199,5.4454445332354915 1.828095325477403,8.245400440622175 c0.06875308141486552,0.7896745719436695 0.5663944326081773,1.5484556875797595 0.3572704766379644,2.369654194531155 C504.07534004422416,653.0270003815635 546.083063544175,652.7856682289411 588.0907870441254,652.5443360763186 zM473.1048405063698,286.09830732645236 c-0.39041928374870066,-1.2480325869560829 -0.02414542740164917,-2.3992866934384223 0.7558746510312898,-3.4975805891077782 c0.14323558628097036,1.213986737147736 -0.7611948299502956,2.292420553762221 -0.7628318080792221,3.487808169255381 c-0.3028409538511937,3.147349671171885 -1.477782005887374,6.134557752504495 -2.7791796183830346,9.100960036732003 c0.007366401580164189,-1.2518154591570079 0.48413628162967837,-2.453192622301644 0.6416954265387452,-3.669386034899914 c0.231223160710709,-1.7833090033873547 1.1614359824725489,-3.4282279320907705 1.414758347923745,-5.192622574473484 C472.4181330568107,286.0310060082818 472.70732660646036,285.86005555574155 473.1048405063698,286.09830732645236 zM480.008424519928,296.08799830387466 c0.41047226582803636,0.7710754502891072 0.316755267947059,1.2209220028494383 0.054838767319000316,1.7026077297675624 c-0.4239773353916717,0.7792716733911211 -0.5819457248329684,1.6342007908007865 -0.8962455255866374,2.426082038194993 c-0.4284790252462181,1.079064295314641 -0.603226440508999,2.4040152836895823 -2.2970895594145153,2.958836539825652 c-0.3314880711073889,0.10844233642659648 -0.58481043655859,0.35874238038798295 -0.620005466330484,0.6207062803022303 c-0.18293230590741008,1.3640406677845271 -1.5129770356592664,2.204468775090645 -2.538134588898776,3.119923847715159 c-2.683416397840902,2.3967647786378037 -5.503111224914839,4.70526253925396 -8.335492632487945,6.999574529116638 c-0.9740019867105926,0.7887288538934399 -2.146487571553381,1.4321323674012312 -3.343527828330055,2.217078349093737 c0.27624005925615636,-1.6370379449514822 0.5426582497387605,-2.141420905075181 1.698774053292295,-3.1025856834609074 c0.24186351854872298,-0.20112270534932652 0.44280258387431587,-0.4050825648493495 0.6065003967668505,-0.6434035135077968 c1.5796838944129754,-2.2987253407637604 2.8618470138937657,-4.71125208690543 4.05356709175143,-7.127876944598105 c1.3185858828493857,-2.6735449280056853 2.791047709817745,-5.308945894652014 3.9131962171960812,-8.037657708921227 c0.6310550687007319,-1.5342699168262794 1.4757357832262148,-3.0032852881865537 2.0810084463963667,-4.549849539665845 c0.6854845914874977,-1.750839350329393 1.0808148096229762,-3.5697704002754813 2.0364007923831515,-5.266073343041499 c0.3208477132693727,-0.5696375055897076 0.5332456254974406,-1.2023228811948687 0.688349303213119,-1.8517159423541316 c0.2488206755966569,-1.0424965307056742 0.312253578092516,-2.224644093495595 1.4073919463435804,-3.222376636490287 c0.49723210666108175,1.713010628320117 0.011458846902477593,3.2992950379091486 0.04174294228759702,4.881166096597102 c0.006547912515701497,0.3480242424853509 -0.27583081472392434,0.6869065438184646 0.00040924453223134636,1.0469098816067608 c0.5013245519833963,0.6531759333601947 0.16083310116691826,1.2924813353169784 -0.22631222632393358,1.8677931492080746 c-0.19316341921319458,0.28686780857035477 -0.35849821023465417,0.5330697409807406 -0.360953677428044,0.8612339044112164 c-0.016369781289253708,2.0834168646609568 -0.07202703767271625,4.164627053871371 -0.7075837962279925,6.207693281722432 c-0.044607654013216334,0.14406438298533253 -0.13259522844295532,0.36504716738953036 0.15755914490906694,0.46749995616465884 C478.4501411339703,297.4159550081311 479.41337554698543,297.0995851429302 480.008424519928,296.08799830387466 zM472.7315316763023,312.69364968558534 c-0.05361103372230593,1.008135441547246 -0.7280460228395567,1.7735365835349588 -1.4900593418543129,2.4925975410613064 c-2.0237142118839797,1.9090895040682034 -4.074847807427458,3.8008408438821553 -6.1087931326172225,5.703310321598733 c-0.4788161027106744,0.4476398771097871 -0.955585982760182,0.8877140098177105 -1.119693040184957,1.4923430832659947 c-0.1755659043272459,0.6468711463586488 -0.9535397600990252,0.9977325429946988 -1.4458609323733276,1.4857230569143733 c-0.29997624212557533,0.2972707071229062 -0.9101598396825042,0.14091198948455871 -1.2862555648031044,-0.05863451911438064 c-0.5217867785949633,-0.2767801493678808 -0.0789841947206495,-0.5532450593856877 0.14650954253882045,-0.7840002636422819 c0.6981711719866689,-0.7149628459753439 1.5645418467204157,-1.3454415461299676 2.067094132300501,-2.15812859062928 c2.0572722635269503,-3.3276665794161056 5.840328719473463,-5.517319105053117 8.973504858236605,-8.135381907445195 C472.4991505624872,312.7072794383481 472.57940901113307,312.7150148481583 472.7315316763023,312.69364968558534 zM473.88412770027674,281.34995394269384 c-0.0900337970908955,-1.204214317295333 0.8193075535271519,-2.098863592814744 1.5109308129981116,-3.0638112434013958 C475.45684164031366,279.4639224920059 474.38704118692215,280.32912367863554 473.88412770027674,281.34995394269384 zM466.7114993243257,306.0865552657712 c-0.0900337970908955,0.5879213878941919 -0.27583081472392434,0.940674220630702 -1.0587156048824793,1.4195227933981382 C465.98131050620555,306.8668947490184 465.9912331978667,306.45196923166975 466.7114993243257,306.0865552657712 zM597.5974891589536,349.2057063141091 c0.26682743501483636,0.08416890647064316 0.3515410531867229,0.2783563461182683 0.3024317093189634,0.5018610453230832 c-0.044607654013216334,0.20332938079986687 -0.25291312091897006,0.2578657883632435 -0.4947766394676941,0.22035230570404396 c-0.3384452281553215,-0.052329732112834176 -0.45467067530902455,-0.21026464650156854 -0.3208477132693727,-0.45898849371256784 C597.1704280193089,349.31376838357636 597.2755742517883,349.1637359997903 597.5974891589536,349.2057063141091 zM480.7377493995931,294.1459689003574 c-0.011868091434708957,0.3209136583787055 0.15796838944129885,0.6787103207164571 -0.27910477098177594,0.9318475188285388 C480.3330838538352,294.7387562380086 480.30219351756796,294.41580283144293 480.7377493995931,294.1459689003574 zM597.6179555493051,350.8647475341838 c0.12727504952394908,0.05958023716461265 0.2005298207933578,0.07439648661824656 0.20748697784129194,0.10024611332458584 c0.06711610328594049,0.24084286345906855 0.42234035726274727,0.4123330699011285 0.2926098405454105,0.6916351340696255 c-0.019234493014873167,0.04161159421020569 -0.20625924424459788,0.08101651296987013 -0.27746779285285056,0.05642784366383975 c-0.37773270324952835,-0.1308243302820857 -0.3527687867834173,-0.396886341747339 -0.32575864765614887,-0.6553826088107366 C597.5197879447946,351.01852282167124 597.5551792991347,350.98080479433713 597.6179555493051,350.8647475341838 zM467.8839739410877,302.112087628093 c-0.22631222632393358,-0.5500926658849109 -0.018416003950410483,-0.8183613528007075 0.44075636121315687,-1.0919891086678126 C468.50371602948667,301.48527872562914 468.2318114400257,301.7459759983243 467.8839739410877,302.112087628093 zM468.5483868392279,299.4771972059007 c0.04910934386776118,-0.13271576638254992 0.1477372761355149,-0.22854852880605317 0.33394353830077517,-0.15951111113912125 c0.07939343925288059,0.029317259557190178 0.15592216678014156,0.1267262187310804 0.16206083476361174,0.19702459379832088 c0.012686580499171764,0.1446948616854867 -0.13218598391072395,0.23895142735860295 -0.29833926399665056,0.2323314010069797 C468.5560141577149,299.739441078842 468.5388606878189,299.6014602870365 468.5483868392279,299.4771972059007 z" id="svg_2" fill="#000000" stroke="#ffc836" stroke-opacity="1" fill-opacity="1" stroke-width="12.906649689263256" filter=""/>
</g><path fill="#000000" fill-opacity="1" stroke="#ffc836" stroke-opacity="1" stroke-width="30" stroke-dasharray="none" stroke-linejoin="miter" stroke-linecap="butt" stroke-dashoffset="" fill-rule="nonzero" opacity="1" marker-start="" marker-mid="" marker-end="" d="M319.1140104467802,235.4505292866299 L672.9485859215363,587.5212473544534 " id="svg_4" class="" filter=""/></g></g><defs><filter id="f108" xmlnsInkscape="http://www.inkscape.org/namespaces/inkscape" inkscapeLabel="Specular light" inkscapeMenu="ABCs" inkscapeMenu-tooltip="Basic specular bevel to use for building textures" color-interpolation-filters="sRGB">
            <feGaussianBlur result="result0" in="SourceAlpha" stdDeviation="6"/>
            <feSpecularLighting specularExponent="25" specularConstant="1" surfaceScale="10" lighting-color="#fff" result="result1" in="result0">
                <feDistantLight azimuth="235" elevation="45"/>
            </feSpecularLighting>
            <feComposite k3="1" k2="1" operator="arithmetic" result="result4" in="SourceGraphic" in2="result91"/>
            <feComposite operator="in" result="result2" in="result4" in2="SourceAlpha"/>
        </filter></defs></svg>